<?xml version="1.0" encoding="utf-8"?>
<svg version="1.1" id="Layer_1" xmlns="http://www.w3.org/2000/svg" xmlns:xlink="http://www.w3.org/1999/xlink" x="0px" y="0px"
	 width="328px" height="328px" viewBox="0 0 328 328" style="enable-background:new 0 0 328 328;" xml:space="preserve">
<style type="text/css">
	.st0{fill:#D0D1FF;}
	.st1{fill:#D8D7FF;}
	.st2{fill:#DEDEFF;}
</style>
<rect y="0" class="st0" width="328" height="328"/>
<path class="st1" d="M315.2,128c-35.8,34.3-58.2-5.4-95.3,47.9s-45.5,95.7-150.6,86c-34.5-3.1-56,6.1-69.3,20V328h16.7
	c8.4-20.5,21.8-44.8,40.4-54.1c34.7-17.4,102.1,3.4,149.2-22.4s23.3-50.6,72.2-86.2c14-10.2,32.2-16.7,49.4-24v-28
	C325.2,117.6,321,122.4,315.2,128z"/>
<path class="st2" d="M206.3,251.5c-47.1,25.8-114.4,5-149.2,22.4c-18.6,9.3-32,33.6-40.4,54.1H328V141.3
	c-17.3,7.4-35.4,13.9-49.4,24C229.6,201,253.4,225.8,206.3,251.5z"/>
<path class="st1" d="M0,110.9c25.4-11.7,46.8,5.7,74.8-39.3c18.1-29,28.4-54.5,49.4-71.6H0V110.9z"/>
</svg>
